<?xml version="1.0" standalone="no"?>
<!DOCTYPE svg PUBLIC "-//W3C//DTD SVG 20010904//EN"
 "http://www.w3.org/TR/2001/REC-SVG-20010904/DTD/svg10.dtd">
<svg version="1.0" xmlns="http://www.w3.org/2000/svg"
 width="150.000000pt" height="150.000000pt" viewBox="0 0 150.000000 150.000000"
 preserveAspectRatio="xMidYMid meet">
<metadata>
Created by potrace 1.11, written by Peter Selinger 2001-2013
</metadata>
<g transform="translate(0.000000,150.000000) scale(0.100000,-0.100000)"
fill="#000000" stroke="none">
<path d="M1137 1338 c-19 -10 -60 -115 -51 -129 3 -6 16 -14 29 -19 17 -6 22
-15 18 -28 -7 -28 23 -36 48 -11 11 11 28 19 37 17 24 -5 24 -81 0 -135 -11
-25 -22 -68 -25 -96 -6 -74 -10 -82 -29 -67 -24 20 -125 18 -158 -3 l-28 -19
-63 61 c-35 34 -80 68 -100 76 -41 18 -114 22 -165 10 -42 -9 -110 -54 -132
-87 l-16 -23 -39 39 c-160 164 -430 57 -435 -171 -1 -40 5 -72 19 -103 24 -51
21 -48 194 -231 70 -74 148 -158 175 -186 49 -54 66 -62 88 -41 7 7 93 90 192
185 98 94 181 174 184 177 3 3 34 -4 69 -15 63 -19 96 -22 197 -20 38 1 64 9
106 34 34 21 69 34 93 35 47 2 54 8 66 63 6 24 13 46 17 49 23 17 45 79 47
134 2 48 -6 83 -32 159 -32 91 -39 125 -42 204 -1 43 -40 86 -106 118 -56 28
-131 39 -158 23z"/>
</g>
</svg>
